HIERARCHY
ROOT Hips
{
	OFFSET -0.001795 -0.223333 0.028219
	CHANNELS 6 Xposition Yposition Zposition Zrotation Yrotation Xrotation 
	JOINT LeftUpLeg
	{
		OFFSET 0.069520 -0.091406 -0.006815
		CHANNELS 3 Zrotation Yrotation Xrotation
		JOINT LeftLeg
		{
			OFFSET 0.034277 -0.375199 -0.004496
			CHANNELS 3 Zrotation Yrotation Xrotation
			JOINT LeftFoot
			{
				OFFSET -0.013596 -0.397961 -0.043693
				CHANNELS 3 Zrotation Yrotation Xrotation
				JOINT LeftToe
				{
					OFFSET 0.026358 -0.055791 0.119288
					CHANNELS 3 Zrotation Yrotation Xrotation
					End Site
					{
						OFFSET 0.000000 0.000000 0.000000
					}
				}
			}
		}
	}
	JOINT RightUpLeg
	{
		OFFSET -0.067670 -0.090522 -0.004320
		CHANNELS 3 Zrotation Yrotation Xrotation
		JOINT RightLeg
		{
			OFFSET -0.038290 -0.382569 -0.008850
			CHANNELS 3 Zrotation Yrotation Xrotation
			JOINT RightFoot
			{
				OFFSET 0.015774 -0.398415 -0.042312
				CHANNELS 3 Zrotation Yrotation Xrotation
				JOINT RightToe
				{
					OFFSET -0.025372 -0.048144 0.123348
					CHANNELS 3 Zrotation Yrotation Xrotation
					End Site
					{
						OFFSET 0.000000 0.000000 0.000000
					}
				}
			}
		}
	}
	JOINT Spine
	{
		OFFSET -0.002533 0.108963 -0.026696
		CHANNELS 3 Zrotation Yrotation Xrotation
		JOINT Spine1
		{
			OFFSET 0.005487 0.135180 0.001092
			CHANNELS 3 Zrotation Yrotation Xrotation
			JOINT Spine2
			{
				OFFSET 0.001457 0.052922 0.025425
				CHANNELS 3 Zrotation Yrotation Xrotation
				JOINT Neck
				{
					OFFSET -0.002778 0.213870 -0.042857
					CHANNELS 3 Zrotation Yrotation Xrotation
					JOINT Head
					{
						OFFSET 0.005152 0.064970 0.051349
						CHANNELS 3 Zrotation Yrotation Xrotation
						End Site
						{
							OFFSET 0.000000 0.000000 0.000000
						}
					}
				}
				JOINT LeftShoulder
				{
					OFFSET 0.078845 0.121749 -0.034090
					CHANNELS 3 Zrotation Yrotation Xrotation
					JOINT LeftArm
					{
						OFFSET 0.090977 0.030469 -0.008868
						CHANNELS 3 Zrotation Yrotation Xrotation
						JOINT LeftForeArm
						{
							OFFSET 0.259612 -0.012772 -0.027456
							CHANNELS 3 Zrotation Yrotation Xrotation
							JOINT LeftHand
							{
								OFFSET 0.249234 0.008986 -0.001171
								CHANNELS 3 Zrotation Yrotation Xrotation
								End Site
								{
									OFFSET 0.000000 0.000000 0.000000
								}
							}
						}
					}
				}
				JOINT RightShoulder
				{
					OFFSET -0.081759 0.118833 -0.038615
					CHANNELS 3 Zrotation Yrotation Xrotation
					JOINT RightArm
					{
						OFFSET -0.096012 0.032551 -0.009143
						CHANNELS 3 Zrotation Yrotation Xrotation
						JOINT RightForeArm
						{
							OFFSET -0.253742 -0.013329 -0.021401
							CHANNELS 3 Zrotation Yrotation Xrotation
							JOINT RightHand
							{
								OFFSET -0.255298 0.007772 -0.005559
								CHANNELS 3 Zrotation Yrotation Xrotation
								End Site
								{
									OFFSET 0.000000 0.000000 0.000000
								}
							}
						}
					}
				}
			}
		}
	}
}
MOTION
Frames: 18
Frame Time: 0.050000
0.000000 0.943838 0.000000 -2.075556 8.599023 -1.201552 -0.721261 0.937580 11.693130 -0.131740 0.045404 -0.982969 -1.429845 -1.987732 1.584411 0.000000 0.000000 0.000000 -2.645614 1.502271 -25.206464 3.675520 -0.506048 8.889744 -4.334315 -12.252985 15.617327 0.000000 0.000000 0.000000 -1.694123 -0.366709 10.831309 4.196451 -0.224976 -25.223787 -2.547705 -6.284207 28.769188 0.500705 1.123987 -27.118853 0.000000 0.000000 0.000000 -24.669179 2.486690 -2.722527 -53.577339 -10.141355 -4.544758 -12.459174 -31.915489 5.532015 0.000000 0.000000 0.000000 17.536718 0.139858 -0.954897 60.360406 2.870118 -7.183462 3.113848 27.727613 2.104713 0.000000 0.000000 0.000000 
-0.002287 0.937257 0.036756 -1.933942 8.928345 -0.641857 -0.232588 0.965160 13.253832 -0.265424 0.048585 -0.741455 -1.704023 -4.161940 -0.892744 0.000000 0.000000 0.000000 -2.705680 1.474472 -25.326445 2.919152 -0.347775 2.825204 -4.013192 -11.781498 17.270021 0.000000 0.000000 0.000000 -1.950192 -0.388242 11.902342 4.914384 -0.259614 -27.920463 -2.536382 -6.506520 30.074448 0.155098 1.342957 -27.915992 0.000000 0.000000 0.000000 -24.138103 4.076559 -3.581862 -54.787824 -11.391597 -4.185424 -14.302535 -32.357200 6.257241 0.000000 0.000000 0.000000 18.463005 -0.600037 -1.410342 59.494038 2.050387 -7.641938 2.992336 28.090244 2.119231 0.000000 0.000000 0.000000 
-0.005455 0.929970 0.076645 -1.624687 9.414058 -0.404227 0.217802 0.981930 15.033872 0.325329 -0.055154 0.616581 -1.323526 -4.489726 -2.555698 0.000000 0.000000 0.000000 -2.032165 1.592607 -25.231794 1.965410 -0.189269 4.246087 -3.819439 -11.207820 15.552662 0.000000 0.000000 0.000000 -0.954746 -0.474172 11.477237 4.898555 -0.269991 -27.332197 -3.179542 -6.620972 30.274422 -0.580480 1.812309 -28.582524 0.000000 0.000000 0.000000 -24.719083 3.509694 -3.352337 -54.620896 -12.699446 -3.595790 -15.301320 -32.654534 6.606602 0.000000 0.000000 0.000000 18.190333 -0.328432 -1.190438 59.433654 2.612844 -7.386608 2.651259 27.538042 2.002158 0.000000 0.000000 0.000000 
-0.009961 0.923998 0.119421 -1.494006 10.941647 -0.474937 1.194567 0.818954 16.688293 0.950046 -0.234537 3.063766 -2.139261 -7.148530 -3.601631 0.000000 0.000000 0.000000 -2.471001 1.407355 -25.631756 2.649930 -0.323917 7.339502 -3.990532 -11.520833 18.529267 0.000000 0.000000 0.000000 -0.124682 -0.616542 12.080838 4.468469 -0.112513 -28.787843 -3.784116 -8.415074 31.799422 -0.840358 1.867029 -30.451897 0.000000 0.000000 0.000000 -25.814094 4.271856 -3.627369 -54.371339 -12.754470 -3.784498 -16.168804 -34.035929 7.340861 0.000000 0.000000 0.000000 18.258374 -0.605850 -1.497600 58.937150 3.398362 -7.118471 2.133106 27.894133 1.904151 0.000000 0.000000 0.000000 
-0.015517 0.923602 0.164423 -1.625476 11.474750 -0.273543 2.453535 0.573069 17.332239 1.117678 -0.463583 6.690265 -3.444429 -7.870918 -0.897512 0.000000 0.000000 0.000000 -1.594680 1.579726 -25.789422 2.762218 -0.401637 11.209518 -4.073558 -11.604826 18.768107 0.000000 0.000000 0.000000 0.659975 -0.748263 12.555292 4.568170 -0.127874 -28.900682 -3.825720 -8.546160 31.254508 -0.470297 1.694560 -30.328064 0.000000 0.000000 0.000000 -25.999567 3.905278 -3.510009 -54.445922 -11.589374 -4.253816 -17.582667 -34.514931 7.889496 0.000000 0.000000 0.000000 19.097639 -0.964008 -1.736136 57.871356 3.297358 -7.005408 1.966704 27.587520 1.835416 0.000000 0.000000 0.000000 
-0.021528 0.927442 0.209530 -1.666124 10.884072 0.109776 2.843700 0.514455 16.430346 1.514423 -0.864563 11.519707 -4.480040 -7.853658 1.975636 0.000000 0.000000 0.000000 -1.292962 1.683490 -25.581437 4.237699 -0.846486 14.732045 -3.826314 -11.326297 18.392356 0.000000 0.000000 0.000000 0.952523 -0.758216 12.303303 5.581879 -0.356609 -28.430596 -4.213237 -9.031165 30.420646 -0.686706 1.725495 -31.373580 0.000000 0.000000 0.000000 -26.303198 4.887521 -3.918559 -54.620177 -10.022656 -4.911071 -17.401399 -33.803114 7.708839 0.000000 0.000000 0.000000 18.182999 0.363429 -1.192750 57.958400 4.611448 -6.268776 0.507531 26.108494 1.325907 0.000000 0.000000 0.000000 
-0.027716 0.933125 0.252600 -1.793418 10.036607 0.813744 3.503506 0.356534 12.738615 1.464699 -1.521571 19.593298 -4.942889 -6.245069 5.633846 0.000000 0.000000 0.000000 -0.012376 1.991984 -24.968661 3.826671 -0.782791 17.226993 -3.278314 -10.324136 15.983756 0.000000 0.000000 0.000000 2.002474 -0.785254 11.152757 5.389622 -0.315368 -28.522479 -4.170574 -8.627466 30.794191 -1.568235 2.178535 -31.552102 0.000000 0.000000 0.000000 -26.702186 4.851568 -3.873708 -54.231965 -8.629028 -5.587513 -17.758217 -32.162759 7.409758 0.000000 0.000000 0.000000 17.322402 0.713629 -0.951484 57.801578 5.957297 -5.671786 1.133774 25.538484 1.410206 0.000000 0.000000 0.000000 
-0.033281 0.939035 0.290641 -2.176439 8.937324 0.546181 4.510221 0.121214 7.557268 -0.112367 -2.011128 30.703975 -4.299733 -2.095597 10.917936 0.000000 0.000000 0.000000 1.564288 2.231878 -22.909698 3.717269 -0.727735 18.013614 -3.416589 -10.540782 14.268780 0.000000 0.000000 0.000000 2.556833 -0.853419 11.347520 6.127264 -0.518900 -27.812749 -4.056775 -6.957932 30.337288 -2.109344 2.682233 -32.700404 0.000000 0.000000 0.000000 -27.232663 3.861083 -3.647189 -53.462522 -7.792317 -5.789919 -17.406024 -31.710836 7.062637 0.000000 0.000000 0.000000 16.122826 1.782146 -0.086611 58.360594 7.396024 -4.984265 1.571975 25.881393 1.563427 0.000000 0.000000 0.000000 
-0.037837 0.944119 0.323414 -2.156805 8.700845 -0.291448 5.119120 -0.127274 0.983508 -2.549987 -2.062878 42.507381 -1.194477 3.247746 11.564179 0.000000 0.000000 0.000000 2.401973 2.156122 -20.088472 3.328588 -0.608251 17.963689 -3.851692 -11.197011 12.689631 0.000000 0.000000 0.000000 2.718367 -0.945955 12.349185 5.708138 -0.409611 -28.221946 -3.058441 -6.023779 31.086005 -1.658306 2.587214 -32.987213 0.000000 0.000000 0.000000 -28.489586 3.703583 -3.960367 -52.116906 -7.967114 -5.629563 -17.064487 -30.360085 6.554240 0.000000 0.000000 0.000000 15.724732 2.679020 0.596126 57.398962 9.163520 -4.195529 1.754674 26.598136 1.692346 0.000000 0.000000 0.000000 
-0.040902 0.950321 0.352418 -1.760927 7.792869 -0.497278 5.180826 -0.362472 -4.855705 -5.917813 -0.546752 49.064758 2.703009 8.963089 9.922260 0.000000 0.000000 0.000000 3.096013 2.039037 -17.559000 2.398975 -0.280758 16.826603 -3.187753 -10.081837 12.656098 0.000000 0.000000 0.000000 1.985561 -0.876681 12.787552 5.926857 -0.471469 -28.132190 -2.256248 -4.202635 31.293665 -1.293745 2.606097 -32.583567 0.000000 0.000000 0.000000 -28.867760 3.337154 -4.236317 -52.001928 -7.085442 -5.888934 -16.634455 -31.011977 6.489007 0.000000 0.000000 0.000000 15.564807 2.744998 0.906611 56.875942 10.917374 -3.382286 1.716264 27.510837 1.824337 0.000000 0.000000 0.000000 
-0.042500 0.958000 0.379227 -1.245794 7.494608 -0.983566 4.171586 -0.640722 -9.398881 -7.431885 0.361462 50.075923 4.876764 11.835982 6.778675 0.000000 0.000000 0.000000 3.395708 1.765718 -14.608246 1.647478 -0.057622 16.016895 -2.734525 -9.252006 12.439565 0.000000 0.000000 0.000000 1.348476 -0.848512 13.613437 5.663571 -0.424779 -27.996735 -1.434412 -3.090869 31.140821 -1.484340 2.855380 -32.339693 0.000000 0.000000 0.000000 -29.260003 3.483314 -4.756335 -51.718048 -6.517556 -5.995949 -16.638119 -31.308893 6.475729 0.000000 0.000000 0.000000 15.210781 3.189979 1.329031 56.761787 12.391025 -2.691214 1.438163 28.772350 1.921170 0.000000 0.000000 0.000000 
-0.042514 0.963492 0.403977 -0.722662 6.833035 -1.496825 3.372019 -0.934430 -12.911295 -8.376755 1.146876 47.606482 5.443800 12.753408 6.424945 0.000000 0.000000 0.000000 3.195259 1.459227 -12.032441 1.198294 0.085484 15.298419 -1.987537 -7.854293 11.982636 0.000000 0.000000 0.000000 0.874039 -0.789304 13.869273 5.378727 -0.381200 -27.798121 -0.840651 -1.825141 31.146508 -0.891947 2.683893 -31.948895 0.000000 0.000000 0.000000 -29.165026 3.982202 -5.395311 -51.729338 -5.834859 -6.203737 -17.142510 -31.571070 6.622138 0.000000 0.000000 0.000000 14.821137 3.103271 1.435877 57.023212 13.585834 -2.083832 0.617982 30.274697 1.905660 0.000000 0.000000 0.000000 
-0.040764 0.967262 0.426191 -0.475034 6.314336 -1.418586 2.410992 -1.232537 -15.436506 -7.420573 0.861613 42.326741 5.108974 12.003355 5.566234 0.000000 0.000000 0.000000 2.827415 1.277583 -10.731502 1.181130 0.105928 14.941915 -1.583101 -7.121560 11.822155 0.000000 0.000000 0.000000 0.675307 -0.755273 13.885966 5.390025 -0.362455 -28.234542 -0.801858 -0.560039 31.602071 -0.816108 2.814244 -32.013021 0.000000 0.000000 0.000000 -28.103662 4.046627 -5.589974 -52.422434 -5.009702 -6.599318 -17.464082 -31.837797 6.713336 0.000000 0.000000 0.000000 14.674283 2.561559 1.360665 57.695262 14.581496 -1.620075 0.299941 31.118708 2.001140 0.000000 0.000000 0.000000 
-0.037650 0.969414 0.445932 -0.439889 5.317026 -1.475107 2.292418 -1.419078 -17.606172 -6.432224 0.666107 37.948568 3.749461 9.601707 5.711209 0.000000 0.000000 0.000000 2.752307 1.157417 -9.729369 0.655814 0.279184 15.307722 -1.003905 -6.100644 11.648344 0.000000 0.000000 0.000000 0.634223 -0.757141 14.270204 5.164417 -0.329765 -28.082865 -0.188861 0.158285 30.927333 -0.064638 2.455791 -32.289000 0.000000 0.000000 0.000000 -28.444246 4.691645 -6.155700 -52.089901 -4.098766 -6.827487 -17.531601 -31.590786 6.640085 0.000000 0.000000 0.000000 13.872693 2.122378 1.111972 58.443330 14.666772 -1.407899 0.087187 32.134054 2.045354 0.000000 0.000000 0.000000 
-0.033472 0.971096 0.464001 -0.562264 3.550244 -1.166915 2.737137 -1.470188 -19.529964 -5.941318 0.780628 34.126152 3.344556 8.976581 6.328208 0.000000 0.000000 0.000000 2.179323 1.036268 -9.028890 1.207423 0.195714 15.008172 -0.318271 -4.757797 10.785639 0.000000 0.000000 0.000000 0.173257 -0.664878 14.182631 5.646975 -0.422333 -28.475819 0.085500 1.234753 30.673122 0.241052 2.319634 -32.580695 0.000000 0.000000 0.000000 -27.725103 5.338649 -6.428464 -52.784877 -3.081913 -7.333261 -16.851180 -29.476843 5.977247 0.000000 0.000000 0.000000 13.502755 2.497639 1.265209 58.914738 14.828027 -1.244908 -0.261581 31.583758 1.886305 0.000000 0.000000 0.000000 
-0.027872 0.973222 0.482651 -0.482603 2.227735 -1.510842 3.956288 -1.325984 -20.926648 -6.105824 1.032745 31.979140 1.684130 6.638285 8.637929 0.000000 0.000000 0.000000 1.520041 0.902070 -8.187888 1.818851 0.093810 15.268472 -0.006177 -4.357576 10.915103 0.000000 0.000000 0.000000 -0.282697 -0.552599 13.510672 5.789329 -0.484540 -28.166917 0.252688 1.492783 30.478822 -0.198741 2.496949 -33.472915 0.000000 0.000000 0.000000 -27.354659 6.004300 -6.589256 -52.760887 -2.018402 -7.790531 -15.392421 -27.194533 5.138544 0.000000 0.000000 0.000000 13.214716 2.053578 0.932583 59.521134 13.844608 -1.699185 0.351630 31.115259 1.972092 0.000000 0.000000 0.000000 
-0.020552 0.973199 0.503964 -0.534010 0.022094 -2.103423 5.254416 -0.996264 -20.835055 -6.857827 1.620380 31.729732 2.081464 7.307456 9.198861 0.000000 0.000000 0.000000 1.229647 0.807447 -7.474121 1.817971 0.211379 16.867690 0.488198 -3.516497 10.495837 0.000000 0.000000 0.000000 -1.074265 -0.396488 12.672096 6.427892 -0.563548 -29.036843 0.693238 2.016418 31.310201 -0.360889 2.436381 -33.221605 0.000000 0.000000 0.000000 -27.113016 6.963237 -6.791805 -52.347411 -0.579558 -8.508756 -15.408432 -25.479745 4.868173 0.000000 0.000000 0.000000 13.419031 2.346762 0.927014 58.569829 12.416216 -2.585815 2.363142 30.903049 2.383499 0.000000 0.000000 0.000000 
-0.011236 0.969581 0.529503 -0.103717 -2.757257 -4.198528 5.412264 -0.699587 -17.522788 -7.076351 2.178543 33.574883 2.353747 7.648016 9.590566 0.000000 0.000000 0.000000 0.152507 0.582708 -5.792070 1.824813 0.437780 19.923744 0.749721 -2.728071 9.006832 0.000000 0.000000 0.000000 -1.790472 -0.249208 10.813900 5.655779 -0.611847 -26.842593 1.856837 2.934335 30.785409 -0.393020 2.246824 -31.213178 0.000000 0.000000 0.000000 -25.809936 6.540069 -5.941497 -53.748664 0.630107 -9.305514 -13.132612 -23.702713 4.060100 0.000000 0.000000 0.000000 13.819973 1.052766 0.094796 59.794112 9.892875 -3.851992 2.860792 30.827778 2.462104 0.000000 0.000000 0.000000 
